<svg width="51" height="51" viewBox="0 0 51 51" fill="none" xmlns="http://www.w3.org/2000/svg">
<path d="M42.31 26.65C44.47 26.06 46.23 24.7 47.37 22.7C49.57 18.83 48.93 15.01 45.5 11.66C42.28 8.51 42.53 4.8 42.54 4.74L42.58 4.23H42.07C41.81 4.23 36.05 4.36 32.78 9.24C32.91 7.01 32.17 4.91 30.64 3.2C27.68 -0.119998 23.86 -0.719998 19.59 1.46C15.58 3.51 12.14 2.09 12.09 2.07L11.62 1.87L11.46 2.36C11.38 2.61 9.64 8.2 13.34 12.87C11.16 12 8.82 12.08 6.65 13.1C2.63 15.01 0.969996 18.51 1.85 23.21C2.68 27.64 0.349996 30.53 0.309996 30.58L-0.0200043 30.97L0.399996 31.26C0.559996 31.37 3.31 33.21 6.99 33.21C8.17 33.21 9.44 33.02 10.75 32.53C10.73 32.56 10.7 32.59 10.68 32.62C10.48 32.88 10.29 33.14 10.13 33.41C10.13 33.42 10.12 33.43 10.11 33.44C10.04 33.55 9.98 33.66 9.92 33.77C9.11 35.25 8.78 36.94 8.98 38.71C9.47 43.14 12.23 45.84 16.97 46.55C21.43 47.21 23.41 50.37 23.43 50.41L23.69 50.85L24.1 50.54C24.31 50.39 28.89 46.91 28.68 41.06C29.91 42.97 31.77 44.25 34.05 44.72C34.8 44.87 35.5 44.94 36.16 44.94C40.33 44.94 42.68 42.1 43.96 39.51C45.96 35.47 49.57 34.55 49.62 34.54L50.12 34.42L49.95 33.93C49.86 33.69 47.96 28.23 42.29 26.65H42.31ZM35.66 34.3C37.62 34.74 38.85 36.24 38.86 36.26L39.26 36.76L39.61 36.22C39.7 36.09 41.67 33 39.56 30.07C38.49 28.59 36.99 27.77 35.5 27.52C35.96 27.4 36.44 27.3 36.92 27.24C37.4 27.32 40.36 27.89 41.66 30.44C42.66 32.41 42.51 35.59 41.34 37.54C40.88 38.29 40.07 39.2 38.76 39.22C37.45 39.24 36.53 38.89 36.01 38.17C35.15 37 35.47 35.11 35.67 34.3H35.66ZM31.71 28.22C31.71 28.22 31.68 28.24 31.66 28.25C31.63 28.27 31.59 28.29 31.56 28.32C30.17 29.28 29 30.52 28.18 31.93C27.59 32.94 27.26 34.15 27.2 35.42C26.66 34.36 25.98 33.39 25.19 32.55C23.6 30.86 21.52 29.67 19.33 29.18C18.15 28.92 16.86 28.99 15.59 29.35C16.46 28.46 17.19 27.47 17.75 26.4C18.83 24.34 19.28 21.99 19.02 19.76C18.89 18.63 18.45 17.51 17.77 16.48C18.81 17.01 19.89 17.4 21.01 17.62C21.14 17.64 21.26 17.66 21.38 17.69C21.38 17.69 21.41 17.69 21.44 17.69C22.06 17.79 22.68 17.84 23.3 17.84C24.83 17.84 26.36 17.54 27.73 16.96C28.84 16.49 29.86 15.67 30.68 14.64C30.49 15.82 30.47 17 30.62 18.16C30.92 20.46 31.9 22.65 33.38 24.33C34.17 25.22 35.24 25.91 36.45 26.37C35.3 26.56 34.2 26.9 33.16 27.4C32.67 27.63 32.2 27.9 31.76 28.19C31.74 28.2 31.72 28.22 31.69 28.23H31.7L31.71 28.22ZM27.67 42.71C27.44 42.25 27.16 41.94 26.99 41.78C25.94 40.78 24.39 40.54 23.23 41.22C22.03 41.92 21.76 43.28 22.12 44.28C22.44 45.16 23.21 45.64 24.07 45.49C24.32 45.45 24.49 45.21 24.45 44.95C24.41 44.7 24.17 44.53 23.91 44.57C23.32 44.67 23.08 44.18 23 43.96C22.78 43.35 22.95 42.47 23.7 42.03C24.5 41.57 25.61 41.75 26.35 42.46C26.75 42.84 27.55 43.9 26.77 45.68C26.69 45.84 26.61 46.01 26.53 46.16C25.78 47.46 24.63 47.9 23 47.5C21.83 47.21 21.02 46.64 20.6 45.8C20.24 45.08 19.83 43.42 21.1 40.46C22.17 37.95 22.96 33.17 19.11 31.12C18.11 30.59 17.13 30.27 16.18 30.17C16.75 30.03 17.33 29.96 17.88 29.96C18.31 29.96 18.73 30 19.12 30.09C21.12 30.53 23.03 31.63 24.5 33.19C26.17 34.96 27.26 37.31 27.65 39.97C27.79 40.95 27.78 41.87 27.66 42.72L27.67 42.71ZM4.75 21.91C4.86 21.67 5.05 21.49 5.29 21.4C5.4 21.36 5.52 21.33 5.64 21.33C5.77 21.33 5.91 21.36 6.03 21.42C6.27 21.53 6.45 21.72 6.54 21.96C6.63 22.2 6.63 22.47 6.52 22.7C6.3 23.19 5.72 23.41 5.23 23.19C4.74 22.97 4.52 22.4 4.74 21.9L4.75 21.91ZM7.42 21.62C7.24 21.14 6.88 20.77 6.42 20.56C6.08 20.41 5.71 20.36 5.35 20.42C5.1 19.23 5.23 17.97 5.73 16.86C6.36 15.44 7.51 14.35 8.97 13.79C10.42 13.23 12.01 13.28 13.43 13.91C13.51 13.95 13.58 13.98 13.66 14.02C13.7 14.04 13.73 14.06 13.77 14.07C15.03 14.73 15.99 15.81 16.5 17.15C17.06 18.6 17.01 20.19 16.38 21.61C15.07 24.54 11.62 25.87 8.68 24.56C8.1 24.3 7.57 23.95 7.11 23.53C7.22 23.4 7.31 23.25 7.39 23.09C7.6 22.63 7.61 22.11 7.43 21.63L7.42 21.62ZM19.11 10.62C20.28 11.21 21.49 11.6 22.71 11.77C23.63 11.89 24.47 11.94 25.24 11.94C25.36 11.94 25.47 11.94 25.59 11.94C25.37 13.88 24.77 15.26 23.8 16.06C22.74 16.93 21.61 16.77 21.55 16.77C21.43 16.75 21.32 16.73 21.2 16.71C18.81 16.24 16.56 14.96 14.7 13.02C14.58 12.89 14.47 12.77 14.36 12.64C14.57 12.66 14.78 12.67 15 12.67C16.44 12.67 18.09 12.2 19.11 10.63V10.62ZM31.72 10.24C31.7 10.33 31.69 10.43 31.67 10.52C31.12 13.01 29.39 15.25 27.38 16.11C26.41 16.52 25.35 16.78 24.28 16.87C24.31 16.85 24.34 16.83 24.37 16.8C25.57 15.83 26.29 14.18 26.53 11.9C29.1 11.69 30.78 10.87 31.73 10.24H31.72ZM35.08 15.85C34.97 16.03 34.86 16.21 34.76 16.4C33.85 18.02 33.33 20.22 34.59 21.53C35.12 22.08 35.91 22.21 36.64 21.86C37.53 21.44 38.35 20.33 38.17 18.78C38.04 17.66 37.29 16.85 36.23 15.76C37.84 13.28 39.39 12.2 40.14 11.79C40.41 12.68 41.05 13.44 41.72 14.24C42.87 15.6 44.18 17.14 43.92 19.8C43.75 21.53 42.89 25.59 38.46 25.93C36.71 25.65 35.1 24.86 34.08 23.71C32.72 22.18 31.82 20.16 31.55 18.04C31.4 16.87 31.44 15.68 31.66 14.49C32.32 11.65 33.84 10.81 34.73 10.56C34.27 12.11 34.02 14.38 35.07 15.86L35.08 15.85ZM35.58 16.86C35.63 16.76 35.69 16.67 35.74 16.58C36.61 17.48 37.17 18.12 37.25 18.89C37.37 19.98 36.82 20.76 36.25 21.03C36.03 21.13 35.61 21.25 35.27 20.9C34.36 19.96 34.87 18.14 35.58 16.88V16.86ZM41.6 5.2C41.63 6.44 42.01 9.55 44.85 12.32C47.98 15.38 48.56 18.72 46.55 22.23C45.48 24.11 43.79 25.36 41.72 25.83C42.34 25.43 42.88 24.91 43.34 24.27C44.39 22.81 44.75 21.07 44.87 19.88C45.16 16.83 43.66 15.05 42.45 13.63C41.69 12.73 41.04 11.96 40.97 11.08L40.92 10.5L40.36 10.67C40.25 10.7 38.02 11.43 35.64 14.97C34.92 13.52 35.43 11.26 35.86 10.14L36.1 9.52L35.44 9.5C35.44 9.5 34.48 9.48 33.43 10.11C33.38 10.14 33.32 10.18 33.27 10.21C35.71 6.13 40.14 5.34 41.6 5.19V5.2ZM29.95 3.82C31.25 5.28 31.9 7.05 31.86 8.94C31.62 9.16 30.97 9.7 29.87 10.16C29.11 10.48 28.02 10.8 26.6 10.94C26.84 5.32 24.26 2.41 22.86 1.26C25.56 0.710002 27.94 1.57 29.95 3.82ZM20.01 2.29C20.59 2 21.15 1.76 21.7 1.57C22.48 2.08 25.94 4.73 25.65 10.95V11C24.81 11.02 23.87 10.98 22.82 10.84C21.63 10.68 20.53 10.3 19.53 9.79C20.87 6.71 19.26 4.07 18.4 2.95C18.92 2.78 19.46 2.56 20.01 2.27V2.29ZM17.43 3.24C18.01 3.88 19.96 6.35 18.72 9.34C15.81 7.57 13.81 4.76 12.89 3.28C13.91 3.51 15.53 3.68 17.43 3.24ZM12.1 3.78C12.58 4.57 13.35 5.69 14.38 6.86C15.6 8.24 16.91 9.35 18.28 10.17C16.94 12.17 14.4 11.76 13.54 11.55C11.66 8.64 11.83 5.45 12.1 3.79V3.78ZM6.54 14.19C5.84 14.82 5.27 15.59 4.87 16.48C4.27 17.83 4.13 19.36 4.47 20.8C4.22 20.99 4.03 21.24 3.9 21.53C3.47 22.49 3.9 23.62 4.86 24.05C5.11 24.16 5.38 24.22 5.63 24.22C5.87 24.22 6.11 24.18 6.33 24.09C6.9 24.64 7.55 25.09 8.29 25.42C9.18 25.82 10.12 26.01 11.04 26.01C13.63 26.01 16.11 24.52 17.23 22C17.72 20.9 17.91 19.72 17.78 18.55C17.94 18.99 18.05 19.43 18.1 19.88C18.34 21.92 17.92 24.08 16.93 25.97C16.58 26.65 16.14 27.29 15.65 27.89C7.69 31.04 4.68 27.94 2.96 24.83C2.94 24.26 2.88 23.66 2.76 23.03C1.99 18.93 3.26 15.96 6.53 14.19H6.54ZM1.35 30.73C1.81 30.04 2.62 28.56 2.88 26.48C4.19 28.38 6.23 30.14 9.78 30.14C11.04 30.14 12.49 29.92 14.16 29.41C13.38 30.08 12.51 30.66 11.55 31.16C7.03 33.5 2.68 31.48 1.35 30.74V30.73ZM10.43 40.85C11.27 41.88 12.45 42.45 13.88 42.51C17.14 42.64 18.38 40.85 18.83 39.31C19.35 37.55 18.85 35.63 17.56 34.54C16.51 33.65 15.19 33.48 13.93 34.09C12.85 34.61 12.25 35.51 12.28 36.56C12.31 37.57 12.96 38.56 13.81 38.9C14.46 39.16 15.12 39.03 15.64 38.52C15.83 38.34 15.83 38.04 15.65 37.86C15.47 37.67 15.17 37.67 14.99 37.85C14.73 38.1 14.46 38.16 14.15 38.04C13.64 37.83 13.22 37.17 13.2 36.53C13.18 36.06 13.37 35.39 14.32 34.94C15.23 34.5 16.19 34.62 16.94 35.26C17.77 35.97 18.4 37.42 17.92 39.05C17.39 40.84 16.07 41.67 13.9 41.58C12.6 41.53 11.6 40.99 10.92 39.98C9.92 38.5 9.87 36.39 10.34 35.07C10.4 34.92 10.46 34.75 10.54 34.59C10.58 34.5 10.63 34.41 10.67 34.32C10.68 34.29 10.7 34.27 10.71 34.24C10.76 34.14 10.82 34.05 10.87 33.96C10.89 33.94 10.9 33.91 10.91 33.89C10.98 33.78 11.04 33.68 11.12 33.57C11.16 33.5 11.22 33.44 11.27 33.37C11.29 33.35 11.31 33.32 11.33 33.29C11.93 32.52 12.74 31.81 13.75 31.41C15.23 30.84 16.87 31.02 18.63 31.96C22.71 34.12 20.31 39.87 20.2 40.11C19.59 41.53 18.72 44.22 19.73 46.24C19.75 46.29 19.78 46.34 19.81 46.39C19.02 46.05 18.11 45.78 17.07 45.63C13.62 45.12 11.38 43.52 10.39 40.87L10.43 40.85ZM23.92 49.47C23.72 49.21 23.42 48.86 23.02 48.47C23.4 48.55 23.75 48.58 24.07 48.58C24.36 48.58 24.63 48.55 24.88 48.5C24.5 48.93 24.16 49.26 23.92 49.47ZM28.88 39.44C27.84 37.11 27.88 34.29 28.99 32.4C29.76 31.08 30.87 29.91 32.19 29.03C32.21 29.01 32.24 29 32.27 28.98C34.09 27.86 37.08 28.24 38.81 30.63C40.09 32.4 39.53 34.28 39.12 35.18C38.3 34.4 36.47 33.01 33.97 33.29C32.71 33.43 31.72 34.07 31.1 35.13C30.25 36.58 30.19 38.76 30.95 40.55C31.47 41.77 32.26 42.79 33.24 43.52C31.29 42.84 29.76 41.43 28.88 39.46V39.44ZM43.14 39.08C42.33 40.72 41.33 41.95 40.16 42.77C38.48 43.76 36.79 44.02 35.27 43.52C33.77 43.03 32.51 41.8 31.81 40.17C31.16 38.64 31.2 36.8 31.9 35.59C32.38 34.78 33.1 34.31 34.07 34.2C34.29 34.18 34.51 34.17 34.73 34.18C34.5 35.18 34.19 37.27 35.25 38.71C35.95 39.66 37.09 40.15 38.65 40.15H38.77C40.14 40.13 41.3 39.39 42.13 38.02C43.48 35.79 43.63 32.27 42.48 30.01C41.75 28.58 40.61 27.69 39.55 27.14C40.03 27.17 40.5 27.23 40.99 27.31C46.01 28.16 48.27 32.39 48.89 33.78C47.73 34.19 44.88 35.53 43.12 39.08H43.14ZM9.99 21.44C10.4 21.62 10.84 21.71 11.26 21.71C12.46 21.71 13.6 21.02 14.12 19.85C14.46 19.09 14.49 18.23 14.19 17.45C13.89 16.67 13.31 16.05 12.54 15.71C11.78 15.37 10.92 15.35 10.14 15.64C9.36 15.93 8.74 16.52 8.4 17.29C7.7 18.86 8.4 20.72 9.98 21.42L9.99 21.44ZM9.26 17.69C9.5 17.15 9.93 16.75 10.48 16.53C10.74 16.43 11 16.38 11.27 16.38C11.58 16.38 11.88 16.45 12.17 16.57C12.71 16.81 13.12 17.24 13.33 17.79C13.54 18.34 13.53 18.93 13.29 19.47C12.8 20.58 11.5 21.07 10.39 20.58C9.28 20.09 8.79 18.79 9.28 17.68L9.26 17.69Z" fill="#03390A"/>
</svg>
